<svg xmlns="http://www.w3.org/2000/svg" viewBox="206.41 -0.11 293.66 315.32">
  <path opacity="1.000000" stroke="none" d="M 378.223 315.11 C 321.888 315.11 266.008 315.075 210.128 315.206 C 207.017 315.214 206.403 314.544 206.407 311.171 C 206.513 208.757 206.513 106.341 206.407 3.926 C 206.403 0.555 207.017 -0.111 210.127 -0.107 C 305.532 0.008 400.938 0.008 496.343 -0.107 C 499.454 -0.111 500.069 0.554 500.065 3.926 C 499.959 106.341 499.959 208.756 500.065 311.171 C 500.069 314.542 499.458 315.219 496.343 315.208 C 457.122 315.06 417.899 315.11 378.223 315.11 Z" style="fill: rgb(255, 255, 255);"/>
  <path fill="#8852F3" opacity="1.000000" stroke="none" d="M 265.1 253.534 C 267.169 258.892 267.293 263.662 263.247 267.783 C 261.831 269.225 261.958 270.085 263.747 271.177 C 269.501 274.69 269.426 280.404 268.18 285.826 C 266.829 291.701 262.384 295.344 256.437 295.863 C 249.162 296.498 241.809 296.202 234.493 296.425 C 232.03 296.501 232.393 294.864 232.36 293.426 C 232.201 286.61 231.744 279.781 232.022 272.982 C 232.328 265.493 232.124 258.027 231.862 250.561 C 231.758 247.599 232.458 246.331 235.674 246.473 C 240.991 246.709 246.325 246.507 251.651 246.574 C 257.117 246.642 261.744 248.491 265.1 253.534 Z"/>
  <path fill="#F5973E" opacity="1.000000" stroke="none" d="M 403.473 127.451 C 404.343 127.746 404.865 127.903 405.478 128.325 C 410.228 135.755 409.137 143.509 407.647 151.668 C 404.765 153.608 403.511 157.386 399.227 156.792 C 396.021 154.94 397.169 152.648 397.89 150.353 C 395.747 161.705 390.641 171.621 383.197 180.784 C 377.543 186.133 372.367 191.457 366.881 196.478 C 364.032 199.085 363.61 203.547 361.827 207.468 C 357.837 212.729 351.612 212.778 346.49 215.116 C 345.168 215.719 343.607 215.794 341.794 216.341 C 338.16 216.474 335.082 218.11 331.418 217.264 C 327.779 213.947 330.204 211.338 332.017 208.853 C 333.474 206.858 335.645 205.268 334.471 201.982 C 346.446 195.969 358.497 190.448 368.477 181.344 C 376.377 174.137 382.33 165.788 385.334 155.061 C 386.038 151.158 387.239 147.667 387.01 143.589 C 391.104 138.521 395.635 134.222 399.318 129.175 C 400.237 127.916 401.452 127.11 403.473 127.451 Z"/>
  <path fill="#8A53F7" opacity="1.000000" stroke="none" d="M 313.862 262.52 C 313.793 272.922 313.555 282.887 313.652 292.848 C 313.682 296.018 312.587 296.68 309.639 296.687 C 300.68 296.706 300.329 296.131 300.891 287.044 C 301.414 278.604 301.146 270.118 301.325 261.654 C 301.399 258.166 299.509 257.635 296.565 257.712 C 294.753 257.759 291.795 258.937 291.286 256.563 C 290.651 253.601 291.162 250.308 291.66 247.237 C 291.835 246.153 293.707 246.548 294.833 246.546 C 303.141 246.525 311.455 246.721 319.755 246.461 C 323.594 246.341 323.921 248.417 323.423 251.084 C 322.951 253.613 325.654 257.929 319.811 257.816 C 317.012 257.761 312.762 256.41 313.862 262.52 Z"/>
  <path fill="#FB326B" opacity="1.000000" stroke="none" d="M 384.717 142.575 C 384.223 144 384.002 145.098 383.592 146.477 C 383.306 146.896 383.211 147.035 383.182 147.419 C 381.199 157.185 375.717 164.634 368.663 171.458 C 366.301 171.639 366.414 170.135 366.699 168.906 C 367.648 164.803 367.867 160.534 369.488 156.196 C 368.649 150.709 368.84 145.378 366.151 140.285 C 365.867 138.392 365.048 137.225 363.721 135.926 C 362.195 132.457 359.585 131.086 356.442 131.614 C 350.308 132.645 344.079 132.669 337.579 133.699 C 334.252 132.82 331.038 132.74 328.301 130.466 C 334.246 124.815 339.704 118.585 348.723 117.485 C 357.972 120.381 367.051 122.325 376.021 124.679 C 383.669 126.685 384.324 127.417 385.041 135.32 C 385.205 137.126 386.091 138.843 385.57 141.123 C 385.298 141.771 385.145 142.01 384.717 142.575 Z"/>
  <path fill="#F9B042" opacity="1.000000" stroke="none" d="M 405.257 152.065 C 407.302 146.328 406.485 140.802 406.12 135.299 C 405.991 133.358 405.74 131.424 405.557 129.038 C 413.087 133.246 416.273 140.556 417.437 148.831 C 419.33 162.285 415.941 174.51 407.759 185.716 C 407.205 186.157 407.034 186.46 406.733 186.974 C 406.262 187.558 406.002 187.979 405.454 188.64 C 405.167 188.881 404.99 189.285 404.812 189.416 C 404.151 190.236 403.667 190.926 402.894 191.752 C 399.158 195.371 395.39 197.441 390.208 194.323 C 388.485 191.852 389.189 189.949 390.629 188.159 C 391.544 187.021 392.787 186.101 393.038 184.113 C 394.129 180.86 398.377 179.636 397.221 175.274 C 399.644 167.324 401.992 159.734 405.257 152.065 Z"/>
  <path fill="#8853F0" opacity="1.000000" stroke="none" d="M 284.31 246.53 C 287.214 246.417 287.296 248.046 287.294 249.837 C 287.272 264.288 287.239 278.74 287.304 293.192 C 287.315 295.731 286.464 296.725 283.835 296.672 C 272.22 296.439 274.629 297.915 274.505 287.673 C 274.361 275.714 274.76 263.741 274.303 251.798 C 274.121 247.041 275.724 245.942 279.862 246.504 C 281.167 246.681 282.517 246.529 284.31 246.53 Z"/>
  <path fill="#DF3A7B" opacity="1.000000" stroke="none" d="M 398.74 100.726 C 396.188 103.509 393.736 106.063 390.968 108.717 C 384.044 106.61 377.595 103.627 370.308 104.771 C 369.347 104.922 368.355 104.676 367.158 103.999 C 365.031 101.837 366.019 99.978 367.396 98.504 C 369.581 96.166 370.325 94.18 367.271 91.983 C 365.752 90.89 365.633 89.194 366.28 87.189 C 366.483 86.917 366.45 86.707 366.552 86.679 C 366.787 86.502 366.92 86.353 367.229 85.963 C 367.471 85.514 367.537 85.306 368.007 84.604 C 368.411 84.11 368.481 83.792 368.622 83.712 C 368.867 83.483 368.971 83.335 369.264 82.992 C 369.453 82.797 369.441 82.713 369.482 82.705 C 369.821 82.369 370.011 81.988 370.279 81.29 C 370.481 81.033 370.477 80.766 370.594 80.701 C 370.834 80.479 370.958 80.321 371.251 79.916 C 371.464 79.482 371.507 79.296 371.727 78.884 C 371.905 78.659 372.066 78.192 372.26 78.039 C 372.454 77.886 372.418 77.726 372.498 77.706 C 372.856 77.325 373.017 76.916 373.282 76.201 C 373.488 75.935 373.433 75.738 373.53 75.706 C 373.862 75.323 374.014 74.94 374.293 74.292 C 374.504 74.06 374.465 73.801 374.573 73.727 C 374.891 73.266 375.019 72.853 375.284 72.164 C 375.492 71.912 375.432 71.744 375.516 71.713 C 375.997 71.266 375.997 70.703 376.305 69.977 C 376.458 69.757 376.451 69.72 376.468 69.711 C 376.685 69.533 376.887 69.364 377.412 68.97 C 381.784 67.087 384.671 70.16 388.334 71.498 C 390.623 74.097 389.452 76.245 388.325 78.545 C 387.091 81.064 385.744 83.495 384.2 85.831 C 383.444 86.976 384.125 87.244 385.511 87.197 C 392.673 87.235 398.284 90.288 403.639 94.61 C 403.418 95.48 403.092 95.985 402.523 96.675 C 402.174 97.01 402.069 97.16 401.77 97.507 C 401.577 97.703 401.582 97.818 401.525 97.823 C 401.313 97.974 401.157 98.121 400.787 98.505 C 400.572 98.743 400.57 98.818 400.532 98.819 C 400.328 98.972 400.161 99.123 399.777 99.532 C 399.559 99.79 399.519 99.763 399.533 99.782 C 399.263 99.984 399.027 100.216 398.74 100.726 Z"/>
  <path fill="#8452E7" opacity="1.000000" stroke="none" d="M 446.754 288.754 C 445.961 289.806 445.34 290.615 444.211 291.743 C 437.009 298.879 425.441 299.095 418.611 292.532 C 410.975 285.195 410.34 273.352 417.163 265.544 C 422.803 259.091 430.852 256.894 438.357 259.767 C 445.627 262.55 451.496 270.472 450.652 279.13 C 440.022 279.125 429.602 279.264 418.802 279.528 C 416.613 280.368 416.488 281.189 417.296 283.056 C 419.715 288.648 423.537 292.168 429.712 292.835 C 435.407 293.451 440.096 291.679 443.506 286.934 C 443.986 286.266 444.472 285.603 445.296 284.877 C 447.136 284.05 448.46 283.786 448.715 286.346 C 448.492 286.731 448.516 286.753 448.5 286.751 C 448.024 287.389 447.64 288.097 446.754 288.754 Z"/>
  <path fill="#8551EC" opacity="1.000000" stroke="none" d="M 402.886 290.54 C 395.624 299.133 383.45 299.588 375.608 291.786 C 374.558 290.741 373.647 289.555 372.586 288.105 C 371.771 287.061 372.127 286.091 371.682 285.012 C 371.455 284.767 371.512 284.772 371.492 284.792 C 370.818 284.071 371.102 283.127 370.728 282.017 C 370.531 281.75 370.509 281.757 370.519 281.75 C 369.541 280.003 370.174 278.124 370.213 275.873 C 371.117 267.089 378.163 259.919 386.826 258.688 C 395.907 257.397 403.997 262.926 407.565 273.22 C 408.355 279.227 408.355 279.229 403.091 279.258 C 394.183 279.306 385.275 279.165 375.952 279.574 C 375.537 279.819 375.524 279.759 375.55 279.774 C 374.572 280.83 375.132 282.089 375.254 283.52 C 377.417 288.484 380.339 292.11 386.147 292.807 C 388.271 293.576 390.153 293.183 392.309 292.981 C 394.656 292.345 396.382 291.247 398.374 289.92 C 398.792 289.606 398.899 289.435 399.27 289.115 C 399.536 288.968 399.54 288.785 399.632 288.782 C 399.822 288.603 399.92 288.426 400.275 288.087 C 400.531 287.925 400.51 287.768 400.588 287.757 C 400.794 287.57 400.92 287.394 401.263 286.976 C 401.48 286.734 401.509 286.749 401.498 286.735 C 405.045 286.434 404.851 288.003 402.886 290.54 Z"/>
  <path fill="#8853F0" opacity="1.000000" stroke="none" d="M 334.213 263.91 C 345.156 253.934 360.591 258.532 365.553 273.248 C 366.445 276.339 365.863 279.132 365.71 282.299 C 365.478 282.702 365.518 282.74 365.491 282.746 C 364.81 283.464 365.108 284.39 364.686 285.431 C 364.455 285.657 364.488 285.718 364.456 285.731 C 364.075 286.197 364.022 286.757 363.66 287.459 C 363.449 287.635 363.478 287.71 363.441 287.724 C 363.17 288.125 363.012 288.542 362.653 289.188 C 362.385 289.392 362.357 289.619 362.249 289.657 C 362.094 289.887 362.048 290.078 361.723 290.365 C 360.062 291.522 358.681 292.584 356.983 293.738 C 355.496 294.407 354.769 293.659 353.859 292.612 C 353.116 287.548 358.11 285.587 359.128 281.268 C 359.931 279.319 360.194 277.67 359.338 275.669 C 356.105 263.628 342.151 263.213 337.243 269.829 C 334.186 273.95 334.267 278.472 335.524 283.454 C 335.748 283.94 335.845 284.128 336.107 284.583 C 336.389 285.021 336.507 285.192 336.809 285.614 C 337.235 286.211 337.462 286.567 337.896 287.18 C 339.497 288.811 340.712 290.264 340.04 292.748 C 339.517 293.386 339.12 293.627 338.323 293.783 C 336.091 294.843 332.826 290.13 331.693 295.495 C 331.48 295.74 331.508 295.751 331.497 295.739 C 328.612 297.238 328.12 295.311 327.677 293.151 C 326.362 286.739 327.634 280.254 327.069 273.81 C 326.766 270.345 326.95 266.826 327.237 262.905 C 327.406 261.53 327.399 260.58 327.427 259.276 C 326.592 257.12 327.157 255.214 327.236 252.92 C 327.404 251.183 327.394 249.883 327.439 248.196 C 328.206 246.445 329.374 246.1 331.088 246.595 C 331.377 246.861 331.447 246.796 331.431 246.841 C 332.733 251.393 331.614 256.008 332.041 260.549 C 332.172 261.945 331.067 264.153 334.213 263.91 Z"/>
  <path fill="#E95832" opacity="1.000000" stroke="none" d="M 305.608 117.485 C 301.584 125.781 297.481 133.665 293.08 141.727 C 289.207 142.491 289.829 139.142 288.49 137.753 C 285.364 143.172 283.71 143.964 278.57 141.888 C 277.437 140.37 277.598 138.979 277.666 137.173 C 277.622 134.173 276.971 131.535 278.725 128.809 C 285.059 127.031 287.713 122.343 289.837 116.709 C 291.151 112.283 293.71 108.941 296.002 105.021 C 297.394 102.097 298.907 99.824 302.623 99.927 C 308.385 103.65 306.716 108.891 306.085 113.81 C 305.948 114.878 305.142 115.873 305.608 117.485 Z"/>
  <path fill="#E14F34" opacity="1.000000" stroke="none" d="M 279.099 142.024 C 285.101 142.169 285.967 137.858 287.281 133.924 C 287.699 132.67 287.32 130.402 289.455 130.773 C 291.039 131.049 290.405 132.976 290.49 134.202 C 290.662 136.69 291.135 139.079 292.521 141.613 C 292.718 142.326 292.653 142.744 292.514 143.472 C 292.327 143.942 292.213 144.102 292.281 144.494 C 290.11 155.252 287.926 165.796 289.971 176.657 C 290.486 179.392 291.168 182.094 291.933 185.53 C 288.259 182.981 286.741 179.556 284.649 176.216 C 283.98 175.048 283.456 174.168 282.829 172.995 C 282.716 172.708 282.57 172.649 282.601 172.577 C 282.219 172.24 281.994 171.864 281.831 171.049 C 281.706 170.722 281.573 170.665 281.603 170.599 C 280.785 169.227 280.213 167.811 279.716 166.013 C 279.511 165.745 279.519 165.754 279.52 165.76 C 277.841 157.975 275.917 150.192 279.099 142.024 Z"/>
  <path fill="#AE498C" opacity="1.000000" stroke="none" d="M 352.718 43.041 C 367.053 36.667 382.197 35.084 397.412 38.795 C 412.49 42.472 420.047 54.98 417.42 69.731 C 417.242 70.731 417.122 71.724 415.765 72.436 C 414.161 70.537 415.441 68.194 415.003 65.984 C 414.743 64.673 415.785 62.909 413.393 62.157 C 412.39 61.959 411.756 61.686 410.731 61.481 C 407.277 60.491 404.304 59.238 401.094 57.59 C 399.65 56.253 399.561 54.738 399.184 53.318 C 396.661 43.837 387.874 39.807 378.411 44.04 C 374.09 44.222 370.172 44.638 366.309 43.221 C 363.706 42.266 361.124 43.618 358.564 44.073 C 356.573 44.428 354.676 44.907 352.718 43.041 Z"/>
  <path fill="#EE8D40" opacity="1.000000" stroke="none" d="M 367.461 216.035 C 353.644 221.946 339.876 225.573 325.388 225.74 C 313.946 225.872 302.419 226.647 290.913 223.036 C 293.299 219.767 297.114 219.474 300.72 218.749 C 306.393 217.608 312.128 218.713 318.256 218.37 C 326.147 218.599 333.53 217.839 341.277 216.496 C 347.852 214.834 353.876 212.841 359.65 210.153 C 361.026 209.512 362.36 209.024 364.29 209.466 C 366.588 210.939 369.872 211.153 368.82 215.118 C 368.379 215.58 368.202 215.712 367.461 216.035 Z"/>
  <path fill="#F5AA42" opacity="1.000000" stroke="none" d="M 276.849 217.788 C 259.195 210.576 247.624 197.783 240.602 180.652 C 239.364 177.633 238.497 174.462 237.496 170.954 C 236.499 169.328 237.272 167.846 236.761 166.23 C 236.573 165.935 236.354 165.828 236.391 165.713 C 235.805 164.365 235.859 163.123 236.704 161.683 C 239.68 162.062 239.801 164.474 240.53 166.389 C 243.533 174.279 247.483 181.623 253.153 188.383 C 257.939 194.789 264.111 198.991 270.753 203.153 C 273.121 204.977 275.7 205.715 278.225 207.247 C 278.899 207.638 279.278 207.878 279.969 208.264 C 281.163 208.798 282.046 209.181 282.999 210.163 C 283.363 210.691 283.479 210.925 283.682 211.545 C 283.691 216.228 280.455 216.958 276.849 217.788 Z"/>
  <path fill="#F58E3B" opacity="1.000000" stroke="none" d="M 334.073 201.655 C 339.033 201.75 338.932 204.025 336.666 206.875 C 334.547 209.539 331.887 211.786 330.589 215.44 C 330.411 218.45 328.375 218.258 326.655 218.218 C 324.214 218.16 321.828 218.597 318.965 218.751 C 313.482 218.316 308.422 218.387 303.002 217.765 C 300.739 212.594 304.121 207.117 309.567 206.847 C 315.642 206.547 321.6 205.722 327.871 204.046 C 330.075 203.145 331.886 202.412 334.073 201.655 Z"/>
  <path fill="#F9B042" opacity="1.000000" stroke="none" d="M 325.214 57.482 C 326.134 56.777 326.786 56.362 327.947 55.497 C 328.457 55.047 328.603 54.867 328.717 54.847 C 331.404 53.457 334.246 52.718 337.247 51.346 C 340.385 51.445 342.977 50.4 346.092 50.271 C 348.692 50.313 350.892 50.106 353.469 50.6 C 355.723 51.102 357.623 51.19 359.865 51.624 C 360.97 52.527 361.742 53.231 362.756 54.145 C 360.333 59.561 354.586 59.822 350.613 62.727 C 349.445 63.581 347.814 63.614 346.448 64.952 C 343.283 66.913 340.717 69.351 336.615 68.994 C 332.745 67.583 329.37 66.033 326.183 64.098 C 323.47 62.451 322.533 60.432 325.214 57.482 Z"/>
  <path fill="#D43D82" opacity="1.000000" stroke="none" d="M 404.047 94.807 C 397.358 94.476 392.587 89.412 385.858 88.757 C 384.767 87.598 384.927 86.4 385.631 85.454 C 388.574 81.494 390.896 77.038 395.146 73.664 C 399.654 72.493 403.214 74.442 407.27 75.905 C 408.646 76.394 409.705 76.562 411.088 77.067 C 412.64 77.414 413.481 78.024 413.699 79.575 C 413.546 79.96 413.514 80.405 413.372 80.577 C 413.136 80.953 413.04 81.157 412.763 81.645 C 412.582 81.929 412.519 82.392 412.368 82.571 C 412.133 82.938 412.048 83.127 411.758 83.549 C 411.552 83.781 411.514 83.762 411.53 83.777 C 411.09 84.17 411.024 84.723 410.685 85.422 C 410.477 85.598 410.523 85.73 410.457 85.753 C 410.249 85.951 410.107 86.124 409.699 86.506 C 407.74 89.356 406.045 91.998 404.047 94.807 Z"/>
  <path fill="#EB3675" opacity="1.000000" stroke="none" d="M 366.166 102.57 C 373.283 101.399 379.789 102.556 386.234 104.665 C 388.156 105.294 390.108 105.646 390.578 108.447 C 390.653 108.817 390.603 108.844 390.583 108.824 C 390.386 108.947 390.209 109.091 389.803 109.488 C 389.574 109.742 389.569 109.823 389.529 109.822 C 389.331 109.965 389.174 110.109 388.797 110.485 C 388.579 110.718 388.575 110.824 388.522 110.824 C 388.308 110.975 388.147 111.126 387.719 111.471 C 387.201 111.957 386.952 112.249 386.438 112.664 C 386.173 112.786 386.024 113.243 385.791 113.3 C 384.329 114.523 383.1 115.688 381.55 117.028 C 381.02 117.379 380.811 117.556 380.236 117.92 C 372.047 118.38 364.919 116.047 357.941 111.97 C 356.452 107.048 360.499 105.618 363.102 102.93 C 364.212 102.408 364.986 102.215 366.166 102.57 Z"/>
  <path fill="#F58E3B" opacity="1.000000" stroke="none" d="M 380.477 117.337 C 380.824 117.124 381.021 117.204 381.125 117.203 C 386.252 119.388 391.929 119.584 396.777 122.277 C 399.21 123.627 402.023 124.428 403.772 127.24 C 400.524 131.432 397.112 135.186 393.975 139.157 C 392.454 141.082 390.837 142.464 388.008 142.725 C 384.573 139.265 385.75 134.643 384.217 130.342 C 382.94 127.587 380.989 125.698 380.121 123.15 C 379.47 121.238 378.664 119.419 380.477 117.337 Z"/>
  <path fill="#EC6234" opacity="1.000000" stroke="none" d="M 306.001 117.755 C 303.53 116.675 303.848 114.877 304.186 112.795 C 304.815 108.912 305.009 104.978 302.659 101.035 C 300.917 98.991 301.726 97.341 302.721 95.332 C 305.933 90.545 310.494 87.68 314.73 83.939 C 315.699 83.764 316.259 83.83 317.201 84.222 C 321.451 89.7 319.636 95.435 318.772 101.485 C 315.348 107.806 310.056 112.105 306.001 117.755 Z"/>
  <path fill="#EF6E36" opacity="1.000000" stroke="none" d="M 318.892 101.781 C 316.452 96.557 318.513 90.767 316.629 84.992 C 315.027 82.402 316.519 81.08 317.824 79.562 C 319.968 77.068 323.303 76.117 325.651 73.242 C 327.759 71.595 329.72 71.159 332.288 72.211 C 336.075 77.474 335.181 82.6 332.82 88.161 C 332.572 88.565 332.508 88.856 332.363 88.891 C 332.218 88.925 331.98 89.282 331.786 89.372 C 331.591 89.463 331.395 89.787 331.205 89.798 C 330.574 89.898 330.2 90.111 329.775 90.744 C 326.181 94.593 322.696 98.13 318.892 101.781 Z"/>
  <path fill="#F07A38" opacity="1.000000" stroke="none" d="M 332.875 88.463 C 332.126 83.519 333.258 78.393 331.651 73.003 C 330.848 69.175 332.631 67.865 336.138 67.76 C 339.649 67.26 341.78 64.675 345.087 63.724 C 349.036 63.572 349.456 66.066 349.65 68.81 C 349.801 70.946 349.291 72.963 348.733 75.45 C 343.538 80.063 338.359 84.212 332.875 88.463 Z"/>
  <path fill="#C04589" opacity="1.000000" stroke="none" d="M 337.747 52.68 C 334.986 54.15 332.291 54.552 329.208 54.87 C 334.168 50.431 340.201 47.266 346.974 44.731 C 348.891 44.234 350.347 43.472 352.216 42.944 C 352.476 42.709 352.484 42.707 352.484 42.693 C 360.919 39.468 369.35 43.052 378.249 42.672 C 385.252 40.716 391.698 42.195 395.172 47.018 C 398.855 52.13 398.728 57.71 395.55 63.549 C 394.934 63.943 394.663 64.052 393.964 64.127 C 391.423 62.505 391.485 60.112 391.238 57.842 C 390.503 51.094 386.811 47.497 380.007 47.105 C 372.579 46.676 365.193 47.256 357.443 48.334 C 350.655 49.499 344.356 51.076 337.747 52.68 Z"/>
  <path fill="#F69C44" opacity="1.000000" stroke="none" d="M 302.216 216.42 C 307.592 217.069 312.733 216.169 318.156 217.478 C 318.892 218.113 319.041 218.606 318.733 219.507 C 318.226 220.01 317.903 220.362 317.66 220.314 C 308.676 218.531 300.133 221.449 291.025 222.775 C 285.691 222.42 281.382 220.131 276.675 218.134 C 277.366 214.908 281.376 215.327 282.429 212.111 C 283.833 210.463 285.628 210.379 287.094 210.862 C 292.075 212.505 297.919 211.764 302.216 216.42 Z"/>
  <path fill="#EF863B" opacity="1.000000" stroke="none" d="M 349.009 75.753 C 346.996 73.92 347.63 71.497 347.52 69.217 C 347.432 67.4 347.669 65.511 345.742 63.894 C 350.228 59.498 356.083 57.333 362.154 54.839 C 366.579 58.336 366.712 60.848 362.854 67.366 C 362.553 67.721 362.512 67.826 362.459 67.807 C 362.026 68.25 361.44 68.242 360.744 68.62 C 360.549 68.812 360.508 68.787 360.522 68.808 C 359.088 69.71 357.387 70.111 355.798 71.394 C 355.552 71.597 355.458 71.821 355.341 71.788 C 354.923 72.084 354.546 72.265 353.814 72.461 C 352.116 73.6 350.708 74.595 349.009 75.753 Z"/>
  <path fill="#EF863B" opacity="1.000000" stroke="none" d="M 302.574 216.393 C 296.082 215.126 289.669 213.518 282.882 211.843 C 282.507 211.777 282.467 211.332 282.457 211.109 C 281.603 207.947 283.193 206.205 285.818 204.806 C 286.192 204.825 286.516 204.766 286.633 204.883 C 287.996 205.376 289.314 205.298 290.888 205.677 C 291.205 205.748 291.517 205.644 291.636 205.757 C 295.137 206.768 298.594 205.958 302.323 206.553 C 311.032 206.656 319.349 205.952 327.882 203.86 C 324.346 206.352 319.852 207.007 315.458 206.938 C 308.704 206.833 305.24 210.66 302.574 216.393 Z"/>
  <path fill="#FBA241" opacity="1.000000" stroke="none" d="M 336.329 67.509 C 334.961 69.224 333.399 70.653 331.667 72.344 C 330.042 73.23 328.588 73.852 326.83 74.624 C 320.598 77.378 316.742 73.111 312.25 70.136 C 315.63 64.877 320.633 61.547 325.211 57.341 C 324.441 59.675 324.708 61.317 327.645 62.477 C 330.633 63.658 333.317 65.609 336.329 67.509 Z"/>
  <path fill="#F5973E" opacity="1.000000" stroke="none" d="M 311.841 69.884 C 317.323 69.567 320.929 73.874 326.162 74.701 C 323.897 78.554 319.169 80.077 316.557 84.283 C 316.053 84.659 315.637 84.72 314.906 84.811 C 308.974 87.289 304.186 84.545 304.216 78.375 C 304.438 77.984 304.469 77.7 304.603 77.65 C 304.737 77.6 305.029 77.236 305.188 77.066 C 305.894 76.23 306.44 75.564 307.287 74.767 C 307.82 74.385 307.978 74.094 308.262 73.607 C 308.55 73.252 308.64 73.054 308.985 72.685 C 309.378 72.309 309.515 72.104 309.946 71.705 C 310.377 71.307 310.514 71.102 310.945 70.703 C 311.348 70.341 311.457 70.173 311.841 69.884 Z"/>
  <path fill="#EF863B" opacity="1.000000" stroke="none" d="M 304.144 78.098 C 305.427 83.209 310.127 83.288 314.209 84.796 C 312.62 89.482 308.332 91.951 304.689 95.476 C 300.011 98.666 296.733 95.413 293.009 93.145 C 295.917 87.473 299.841 82.811 304.144 78.098 Z"/>
  <path fill="#AE498C" opacity="1.000000" stroke="none" d="M 348.647 118.357 C 341.934 122.124 335.605 125.865 328.954 129.731 C 328.308 130.475 327.974 131.085 326.99 131.554 C 324.722 129.573 327.265 128.934 328.101 128.176 C 336.475 120.583 344.261 112.417 352.222 103.988 C 355.084 105.148 357.51 106.551 357.49 110.33 C 356.719 115.528 353.261 117.359 348.647 118.357 Z"/>
  <path fill="#F69C44" opacity="1.000000" stroke="none" d="M 389.611 191.768 C 393.92 195.385 397.881 193.688 402.223 191.933 C 398.76 197.233 393.418 200.898 387.882 204.811 C 384.095 205.535 380.682 208.661 376.946 204.667 C 376.317 203.105 376.245 201.718 377.137 200.975 C 381.037 197.724 384.384 193.732 389.611 191.768 Z"/>
  <path fill="#EC6234" opacity="1.000000" stroke="none" d="M 252.725 190.052 C 244.892 182.127 240.259 172.872 237.522 162.181 C 234.818 158.059 235.288 153.694 235.01 149.046 C 235.275 146.668 234.361 144.53 235.969 142.332 C 237.648 144.261 236.692 146.287 237.29 148.404 C 237.51 148.78 237.486 148.765 237.493 148.752 C 237.982 151.875 238.898 154.937 239.309 158.45 C 239.547 158.776 239.495 158.758 239.513 158.737 C 240.224 159.457 239.898 160.435 240.344 161.546 C 243.443 169.722 246.795 177.392 252.282 184.325 C 252.681 184.867 252.912 185.127 253.31 185.587 C 253.483 185.782 253.511 185.759 253.497 185.772 C 253.73 185.98 253.958 186.193 254.311 186.612 C 254.452 186.799 254.509 186.762 254.488 186.789 C 254.647 186.962 254.825 187.107 255.203 187.535 C 255.401 187.818 255.491 187.779 255.456 187.814 C 255.592 188.065 255.762 188.282 255.925 188.913 C 255.24 190.45 254.266 190.68 252.725 190.052 Z"/>
  <path fill="#F07A38" opacity="1.000000" stroke="none" d="M 292.68 92.841 C 296.932 92.033 299.975 95.229 304.127 95.732 C 303.876 97.18 303.247 98.607 302.556 100.359 C 300.148 101.407 299.462 103.737 297.771 105.551 C 293.624 108.969 290.74 106.513 287.614 103.683 C 286.863 102.147 287.64 101.248 288.325 99.938 C 289.204 98.429 289.846 97.253 290.725 95.832 C 290.961 95.585 291.061 95.201 291.235 95.105 C 291.408 95.009 291.405 94.739 291.531 94.692 C 291.862 94.331 292.003 93.99 292.287 93.432 C 292.491 93.242 292.529 92.911 292.68 92.841 Z"/>
  <path fill="#F5973E" opacity="1.000000" stroke="none" d="M 377.225 202.39 C 379.801 206.543 383.635 203.964 387.102 204.859 C 382.094 209.524 375.609 212.348 368.901 215.417 C 368.68 212.809 365.806 212.806 364.608 210.881 C 364.33 210.357 364.236 210.122 364.228 209.517 C 368.066 205.969 371.652 202.492 377.225 202.39 Z"/>
  <path fill="#D43D82" opacity="1.000000" stroke="none" d="M 366.688 102.481 C 366.023 103.025 365.529 103.283 364.783 103.661 C 361.295 102.415 358.016 101.083 359.289 96.174 C 359.511 95.846 359.495 95.736 359.55 95.727 C 359.748 95.557 359.891 95.395 360.254 94.997 C 360.474 94.759 360.478 94.731 360.492 94.727 C 360.768 94.522 360.995 94.289 361.316 93.814 C 361.49 93.44 361.536 93.276 361.755 92.922 C 361.962 92.569 361.995 92.404 362.258 92.139 C 362.49 92.038 362.518 91.797 362.631 91.754 C 362.845 91.548 362.946 91.384 363.264 91.03 C 363.481 90.841 363.469 90.734 363.522 90.726 C 363.733 90.55 363.89 90.381 364.249 89.931 C 364.957 88.826 365.462 88.003 366.225 87.048 C 366.493 89.312 368.266 90.426 369.993 91.382 C 373.676 93.42 373.747 95.555 370.614 98.209 C 369.23 99.382 368.102 100.858 366.688 102.481 Z"/>
  <path fill="#DA8266" opacity="1.000000" stroke="none" d="M 288.274 99.807 C 288.335 100.451 288.11 101.298 287.778 102.455 C 289.704 107.278 286.778 110.88 285.308 115.141 C 283.725 119.719 284.08 124.516 280.725 128.477 C 279.278 131.013 279.578 133.497 279.28 136.307 C 277.869 138.141 276.503 139.656 275.084 136.459 C 276.133 122.911 281.274 111.181 288.274 99.807 Z"/>
  <path fill="#D26A56" opacity="1.000000" stroke="none" d="M 274.945 136.513 C 276.09 137.609 277.463 136.867 278.979 136.74 C 279.309 138.129 279.381 139.539 279.462 141.374 C 279.486 149.525 279.501 157.252 279.519 165.372 C 275.095 156.617 274.094 146.904 274.945 136.513 Z"/>
  <path fill="#EE8D40" opacity="1.000000" stroke="none" d="M 362.916 67.685 C 362.361 63.672 364.326 59.626 362.539 55.176 C 361.994 54.346 361.477 53.917 360.754 53.338 C 360.63 52.966 360.712 52.743 361.115 52.676 C 365.258 53.557 368.82 54.953 371.086 58.233 C 373.012 61.023 374.166 63.96 369.206 65.227 C 367.158 65.751 365.25 66.825 362.916 67.685 Z"/>
  <path fill="#EF6E36" opacity="1.000000" stroke="none" d="M 252.473 190.163 C 253.214 189.693 254.058 189.546 255.188 189.259 C 255.571 188.871 255.668 188.623 256.072 188.629 C 256.38 188.883 256.449 188.849 256.442 188.887 C 256.63 189.039 256.825 189.153 257.218 189.544 C 257.416 189.819 257.482 189.78 257.469 189.816 C 257.643 189.989 257.829 190.126 258.234 190.531 C 258.453 190.799 258.504 190.758 258.488 190.787 C 258.74 191.021 259 191.236 259.422 191.647 C 261.165 193.008 262.737 194.183 264.493 195.635 C 264.971 196.115 265.292 196.253 265.828 196.514 C 266.015 196.703 266.444 196.779 266.583 196.947 C 267.522 197.352 268.147 197.897 269.08 198.515 C 269.323 198.701 269.555 198.655 269.596 198.766 C 269.984 199.12 270.367 199.268 271.038 199.511 C 271.288 199.699 271.523 199.651 271.565 199.763 C 274.176 201.698 273.668 203.299 270.859 204.834 C 263.012 201.948 257.329 196.794 252.473 190.163 Z"/>
  <path fill="#F07A38" opacity="1.000000" stroke="none" d="M 270.66 205.168 C 271.11 203.473 272.725 202.333 271.709 200.153 C 276.29 201.384 280.974 202.892 285.925 204.613 C 285.411 206.859 285.105 209.174 282.679 210.628 C 281.395 210.824 280.342 210.762 278.892 210.69 C 278.329 210.535 278.163 210.389 277.768 210.005 C 275.311 208.321 273.084 206.876 270.66 205.168 Z"/>
  <path fill="#C04589" opacity="1.000000" stroke="none" d="M 359.225 95.982 C 359.446 99.395 363.777 99.998 364.452 103.442 C 362.567 105.844 360.603 107.907 358.521 110.274 C 358.108 111.063 357.679 111.27 356.806 110.964 C 356.374 107.921 352.399 107.558 352.55 104.205 C 352.524 103.852 352.52 103.739 352.577 103.735 C 352.763 103.57 352.892 103.408 353.252 103.039 C 353.483 102.831 353.477 102.735 353.526 102.731 C 353.725 102.565 353.876 102.403 354.25 101.994 C 354.473 101.747 354.491 101.741 354.493 101.732 C 354.759 101.528 354.988 101.299 355.309 100.825 C 356.605 99.118 357.772 97.618 359.225 95.982 Z"/>
  <path fill="#D5619D" opacity="1.000000" stroke="none" d="M 371.212 155.674 C 370.247 161.013 369.094 166.053 368.151 171.346 C 367.373 173.097 366.227 174.392 363.839 175.315 C 366.192 167.615 366.735 160.526 363.834 152.976 C 366.858 152.303 369.097 153.475 371.212 155.674 Z"/>
  <path fill="#ED4A78" opacity="1.000000" stroke="none" d="M 365.117 134.536 C 366.107 135.875 366.739 136.98 367.435 138.399 C 364.207 142.309 359.902 141.671 355.306 141.598 C 353.481 141.561 352.279 140.912 350.758 139.979 C 346.924 138.281 343.437 136.798 339.924 134.717 C 341.13 133.12 342.614 132.651 344.052 133.186 C 348.621 134.886 353.188 133.876 357.679 133.154 C 360.309 132.731 362.532 133.104 365.117 134.536 Z"/>
  <path fill="#C04589" opacity="1.000000" stroke="none" d="M 413.806 79.741 C 412.764 79.569 411.981 79.178 410.859 78.764 C 410.11 78.226 409.542 77.588 409.752 77.012 C 411.595 71.951 411.683 66.554 413.157 61.077 C 413.661 59.886 413.411 58.579 414.8 58.579 C 416.03 58.579 416.34 59.748 416.364 60.713 C 416.456 64.46 417.038 68.242 415.651 72.304 C 416.261 75.224 415.201 77.381 413.806 79.741 Z"/>
  <path fill="#8A53F7" opacity="1.000000" stroke="none" d="M 354.136 291.353 C 355 292.214 355.557 292.856 356.39 293.665 C 355.618 295.476 353.151 294.877 351.843 296.712 C 350.745 297.402 349.852 297.228 348.554 297.121 C 347.182 297.091 346.241 297.143 344.953 297.116 C 343.127 296.663 341.674 296.155 339.788 296.002 C 339.459 295.807 339.499 295.76 339.497 295.791 C 339.1 295.325 338.502 295.272 337.707 294.957 C 337.465 294.796 337.506 294.756 337.494 294.782 C 337.169 294.478 336.963 294.091 336.934 293.317 C 337.603 292.914 338.205 292.839 339.258 292.717 C 340.413 291.874 341.23 291.262 342.672 290.997 C 344.928 290.944 346.82 291.373 349.056 290.787 C 350.904 290.697 352.409 290.437 354.136 291.353 Z"/>
  <path fill="#AA624D" opacity="1.000000" stroke="none" d="M 237.558 148.329 C 236.14 147.64 236.9 145.693 235.529 143.863 C 235.529 145.673 235.529 146.922 235.54 148.539 C 235.424 149.083 235.296 149.258 234.951 149.192 C 234.344 141.48 233.916 134.008 236.106 126.64 C 236.024 133.795 237.125 140.814 237.558 148.329 Z"/>
  <path fill="#7151AF" opacity="1.000000" stroke="none" d="M 327.176 262.845 C 327.554 270.017 327.529 277.563 327.91 285.088 C 328.094 288.728 326.436 293.039 331.103 295.689 C 327.56 297.21 327.099 297.171 326.996 292.892 C 326.759 283.004 326.932 273.105 327.176 262.845 Z"/>
  <path fill="#AA624D" opacity="1.000000" stroke="none" d="M 384.335 129.956 C 387.782 133.145 386.889 137.704 387.594 142.32 C 387.423 146.599 387.328 150.471 385.752 154.454 C 385.785 152.347 386.257 149.953 386.282 147.554 C 386.298 145.978 387.421 143.989 384.849 142.867 C 384.37 142.679 384.297 142.457 384.154 141.892 C 383.962 137.815 383.968 134.081 384.335 129.956 Z"/>
  <path fill="#7C52CE" opacity="1.000000" stroke="none" d="M 376.003 279.865 C 378.421 277.883 381.658 278.895 384.731 278.82 C 390.855 278.669 396.988 278.671 403.113 278.812 C 406.308 278.885 407.761 277.637 407.53 274.014 C 409.485 279.626 409.22 280.035 403.394 280.013 C 394.419 279.979 385.444 279.945 376.003 279.865 Z"/>
  <path fill="#7C52CE" opacity="1.000000" stroke="none" d="M 418.891 279.804 C 419.036 278.222 420.394 278.774 421.432 278.781 C 430.853 278.842 440.273 278.978 450.067 279.241 C 440.097 280.576 429.718 279.532 418.891 279.804 Z"/>
  <path fill="#7C52CE" opacity="1.000000" stroke="none" d="M 402.817 290.639 C 402.795 289.471 404.215 288.001 401.786 286.83 C 402.123 283.372 404.912 283.94 406.434 284.92 C 408.062 285.97 405.703 287.33 405.277 288.612 C 404.965 289.547 404.195 290.276 402.817 290.639 Z"/>
  <path fill="#EE8D40" opacity="1.000000" stroke="none" d="M 234.684 149.369 C 234.733 148.95 235.143 148.952 235.347 148.93 C 235.342 153.067 236.914 156.945 237.465 161.393 C 237.161 162.846 236.849 163.892 236.483 165.267 C 235.022 164.181 235.965 162.326 235.477 160.358 C 234.896 159.154 235.057 158.199 234.851 156.96 C 234.708 154.349 234.671 152.068 234.684 149.369 Z"/>
  <path fill="#7151AF" opacity="1.000000" stroke="none" d="M 334.051 263.686 C 334.167 264.407 333.762 265.252 332.824 265.194 C 331.102 265.09 331.433 263.611 331.42 262.575 C 331.355 257.653 331.384 252.73 331.397 247.347 C 333.22 250.821 331.786 254.994 332.331 259.01 C 332.547 260.606 331.167 262.725 334.051 263.686 Z"/>
  <path fill="#ED4A78" opacity="1.000000" stroke="none" d="M 326.976 131.908 C 327.151 131.149 327.631 130.605 328.372 129.96 C 330.916 132.035 333.988 131.954 337.158 132.724 C 338.225 133.21 339.323 132.967 339.613 134.328 C 339.564 134.649 339.5 134.749 339.467 134.798 C 335.383 133.939 331.332 133.031 326.976 131.908 Z"/>
  <path fill="#AA624D" opacity="1.000000" stroke="none" d="M 361.566 52.424 C 361.435 52.832 361.004 53.045 360.776 53.117 C 358.438 52.927 356.329 52.665 353.823 52.185 C 353.418 51.421 353.555 50.914 354.115 50.16 C 354.627 49.749 354.86 49.624 355.482 49.421 C 357.44 49.223 359.012 49.272 360.977 49.26 C 362.683 49.288 364.004 49.196 365.99 50.39 C 365.021 51.515 363.22 50.853 361.566 52.424 Z"/>
  <path fill="#7151AF" opacity="1.000000" stroke="none" d="M 336.718 292.868 C 337.135 293.386 337.268 293.784 337.442 294.495 C 335.777 296.139 333.524 291.387 331.765 295.518 C 331.483 293.994 330.496 291.763 332.299 290.721 C 334.032 289.719 334.877 292.348 336.718 292.868 Z"/>
  <path fill="#D43D82" opacity="1.000000" stroke="none" d="M 367.007 51.423 C 366.682 51.256 366.775 50.93 366.795 50.762 C 369.772 48.084 372.114 48.758 373.795 52.81 C 371.528 52.96 369.43 52.275 367.007 51.423 Z"/>
  <path fill="#F07A38" opacity="1.000000" stroke="none" d="M 302.353 206.657 C 299.223 206.579 295.758 207.247 292.062 206.086 C 295.19 206.091 298.625 206.311 302.353 206.657 Z"/>
  <path fill="#AA624D" opacity="1.000000" stroke="none" d="M 239.579 158.361 C 237.722 155.97 237.428 152.797 237.418 149.158 C 238.204 151.809 238.908 154.877 239.579 158.361 Z"/>
  <path fill="#7C52CE" opacity="1.000000" stroke="none" d="M 365.705 282.386 C 365.474 279.977 365.469 277.252 365.514 274.07 C 367.042 276.373 366.501 279.221 365.705 282.386 Z"/>
  <path fill="#EE8D40" opacity="1.000000" stroke="none" d="M 355.873 71.558 C 356.192 69.461 357.917 69.005 360.181 68.831 C 359.089 69.726 357.642 70.623 355.873 71.558 Z"/>
  <path fill="#7151AF" opacity="1.000000" stroke="none" d="M 339.653 296.058 C 341.035 295.689 342.562 295.872 344.305 296.798 C 342.911 297.505 341.375 296.936 339.653 296.058 Z"/>
  <path fill="#D43D82" opacity="1.000000" stroke="none" d="M 378.346 65.622 C 377.575 63.722 377.564 61.649 377.952 59.03 C 378.592 58.598 378.834 58.713 379.344 59.129 C 380.85 61.555 380.825 63.573 378.346 65.622 Z"/>
  <path fill="#7C52CE" opacity="1.000000" stroke="none" d="M 448.721 286.535 C 448.192 285.581 447.434 284.998 445.95 284.872 C 447.086 284.574 449.046 283.222 448.721 286.535 Z"/>
  <path fill="#D5619D" opacity="1.000000" stroke="none" d="M 361.9 148.982 C 360.615 148.605 359.618 147.528 358.854 145.959 C 360.941 145.501 361.926 146.493 361.9 148.982 Z"/>
  <path fill="#7151AF" opacity="1.000000" stroke="none" d="M 370.126 275.733 C 370.461 277.241 370.557 279.046 370.591 281.297 C 369.146 279.969 369.661 277.983 370.126 275.733 Z"/>
  <path fill="#D26A56" opacity="1.000000" stroke="none" d="M 279.525 166.083 C 280.738 166.845 281.268 168.288 281.584 170.197 C 280.935 169.162 280.236 167.792 279.525 166.083 Z"/>
  <path fill="#D5619D" opacity="1.000000" stroke="none" d="M 358.453 145.815 C 357.264 144.965 356.112 144.079 355.054 142.717 C 357.373 141.819 358.498 142.868 358.694 145.346 C 358.565 145.704 358.491 145.778 358.453 145.815 Z"/>
  <path fill="#AE498C" opacity="1.000000" stroke="none" d="M 352.121 42.714 C 351.324 44.079 349.805 44.638 347.7 44.701 C 348.58 43.513 350.186 43.143 352.121 42.714 Z"/>
  <path fill="#D5619D" opacity="1.000000" stroke="none" d="M 350.616 140.016 C 351.496 140.093 352.58 140.422 353.994 140.833 C 354.712 141.147 354.929 141.487 354.859 142.235 C 354.742 142.534 354.648 142.624 354.6 142.668 C 353.309 141.898 352.065 141.084 350.616 140.016 Z"/>
  <path fill="#F07A38" opacity="1.000000" stroke="none" d="M 290.94 205.557 C 289.756 206.555 288.45 205.926 286.944 205.171 C 288.058 205.122 289.367 205.244 290.94 205.557 Z"/>
  <path fill="#7151AF" opacity="1.000000" stroke="none" d="M 327.197 252.794 C 327.493 254.327 327.572 256.171 327.556 258.468 C 326.353 257.06 326.779 255.073 327.197 252.794 Z"/>
  <path fill="#7151AF" opacity="1.000000" stroke="none" d="M 392.16 292.74 C 390.856 294.062 388.977 293.976 386.741 293.122 C 388.199 292.843 389.959 292.77 392.16 292.74 Z"/>
  <path fill="#EE8D40" opacity="1.000000" stroke="none" d="M 236.543 166.277 C 237.704 167.032 237.536 168.467 237.562 170.195 C 236.561 169.402 236.7 167.968 236.543 166.277 Z"/>
  <path fill="#D43D82" opacity="1.000000" stroke="none" d="M 376.855 56.035 C 375.712 55.86 374.833 55.01 373.79 53.902 C 373.626 53.644 373.743 53.512 373.803 53.447 C 375.731 52.751 376.678 53.638 376.855 56.035 Z"/>
  <path fill="#7151AF" opacity="1.000000" stroke="none" d="M 331.14 246.66 C 330.28 247.07 329.183 247.278 327.791 247.648 C 327.827 245.332 329.677 246.683 331.14 246.66 Z"/>
  <path fill="#7C52CE" opacity="1.000000" stroke="none" d="M 375.465 283.378 C 374.47 282.666 374.173 281.487 375.315 279.989 C 375.554 280.853 375.532 281.915 375.465 283.378 Z"/>
  <path fill="#F07A38" opacity="1.000000" stroke="none" d="M 269.19 198.47 C 268.553 198.315 267.782 197.929 266.866 197.329 C 267.5 197.49 268.278 197.865 269.19 198.47 Z"/>
  <path fill="#D43D82" opacity="1.000000" stroke="none" d="M 377.82 69.4 C 377.383 69.739 377.203 69.735 376.754 69.717 C 376.696 68.571 376.907 67.44 377.352 66.052 C 377.585 65.795 377.678 65.831 377.724 65.85 C 378.607 66.86 378.635 67.93 377.82 69.4 Z"/>
  <path fill="#D26A56" opacity="1.000000" stroke="none" d="M 282.748 173.021 C 283.294 173.559 283.871 174.409 284.508 175.575 C 283.972 175.038 283.376 174.186 282.748 173.021 Z"/>
  <path fill="#AA624D" opacity="1.000000" stroke="none" d="M 240.576 161.467 C 239.785 161.191 239.465 160.362 239.481 159.057 C 239.885 159.519 240.239 160.323 240.576 161.467 Z"/>
  <path fill="#7151AF" opacity="1.000000" stroke="none" d="M 348.392 297.163 C 348.966 296.902 349.809 296.763 351.075 296.696 C 350.552 296.939 349.606 297.112 348.392 297.163 Z"/>
  <path fill="#7C52CE" opacity="1.000000" stroke="none" d="M 446.816 288.783 C 447.038 288.349 447.493 287.701 448.217 286.902 C 448.582 287.81 447.821 288.194 446.816 288.783 Z"/>
  <path fill="#AA624D" opacity="1.000000" stroke="none" d="M 234.639 156.98 C 235.011 157.514 235.277 158.397 235.489 159.633 C 234.579 159.288 234.529 158.319 234.639 156.98 Z"/>
  <path fill="#7151AF" opacity="1.000000" stroke="none" d="M 371.428 285.097 C 371.828 285.547 372.201 286.327 372.537 287.441 C 372.134 286.992 371.767 286.21 371.428 285.097 Z"/>
  <path fill="#7151AF" opacity="1.000000" stroke="none" d="M 370.487 282.084 C 370.873 282.547 371.216 283.344 371.514 284.477 C 371.128 284.014 370.785 283.216 370.487 282.084 Z"/>
  <path fill="#7C52CE" opacity="1.000000" stroke="none" d="M 364.686 285.432 C 364.646 284.845 364.838 284.032 365.246 282.985 C 365.282 283.57 365.099 284.389 364.686 285.432 Z"/>
  <path fill="#D43D82" opacity="1.000000" stroke="none" d="M 376.218 69.909 C 376.298 70.269 376.137 70.782 375.788 71.488 C 375.725 71.142 375.852 70.602 376.218 69.909 Z"/>
  <path fill="#7C52CE" opacity="1.000000" stroke="none" d="M 362.613 289.262 C 362.584 288.936 362.782 288.48 363.192 287.881 C 363.216 288.203 363.028 288.668 362.613 289.262 Z"/>
  <path fill="#EF863B" opacity="1.000000" stroke="none" d="M 292.293 93.339 C 292.317 93.617 292.143 93.993 291.813 94.507 C 291.803 94.243 291.949 93.84 292.293 93.339 Z"/>
  <path fill="#D43D82" opacity="1.000000" stroke="none" d="M 377.659 58.614 C 377.266 58.219 376.955 57.75 376.618 56.996 C 376.591 56.711 376.691 56.643 376.742 56.611 C 377.527 56.64 377.896 57.084 377.969 58.078 C 377.903 58.389 377.741 58.54 377.659 58.614 Z"/>
  <path fill="#7C52CE" opacity="1.000000" stroke="none" d="M 363.677 287.467 C 363.632 287.124 363.816 286.614 364.211 285.923 C 364.251 286.262 364.078 286.781 363.677 287.467 Z"/>
  <path fill="#C04589" opacity="1.000000" stroke="none" d="M 410.701 85.438 C 410.689 85.109 410.902 84.619 411.33 83.96 C 411.339 84.287 411.132 84.782 410.701 85.438 Z"/>
  <path fill="#EE8D40" opacity="1.000000" stroke="none" d="M 360.829 68.802 C 360.991 68.508 361.434 68.204 362.141 67.844 C 361.973 68.122 361.541 68.457 360.829 68.802 Z"/>
  <path fill="#F07A38" opacity="1.000000" stroke="none" d="M 271.159 199.489 C 270.849 199.535 270.41 199.372 269.804 199.043 C 270.101 199.011 270.565 199.145 271.159 199.489 Z"/>
  <path fill="#F07A38" opacity="1.000000" stroke="none" d="M 265.92 196.516 C 265.655 196.539 265.295 196.376 264.806 196.062 C 265.06 196.05 265.443 196.19 265.92 196.516 Z"/>
  <path fill="#EE8D40" opacity="1.000000" stroke="none" d="M 353.781 72.667 C 353.934 72.355 354.345 72.106 354.99 71.805 C 354.829 72.08 354.433 72.405 353.781 72.667 Z"/>
  <path fill="#7C52CE" opacity="1.000000" stroke="none" d="M 443.656 292.153 C 443.704 292.062 443.968 291.763 444.07 291.752 C 444.101 292.061 443.913 292.229 443.656 292.153 Z"/>
  <path fill="#D43D82" opacity="1.000000" stroke="none" d="M 370.254 81.152 C 370.291 81.482 370.102 81.931 369.718 82.539 C 369.691 82.222 369.859 81.747 370.254 81.152 Z"/>
  <path fill="#7151AF" opacity="1.000000" stroke="none" d="M 337.628 295.054 C 338.014 294.983 338.564 295.169 339.305 295.589 C 338.927 295.652 338.359 295.482 337.628 295.054 Z"/>
  <path fill="#D26A56" opacity="1.000000" stroke="none" d="M 281.713 170.985 C 281.967 171.152 282.229 171.582 282.561 172.258 C 282.328 172.086 282.024 171.667 281.713 170.985 Z"/>
  <path fill="#D43D82" opacity="1.000000" stroke="none" d="M 373.264 76.073 C 373.311 76.405 373.134 76.875 372.767 77.515 C 372.731 77.194 372.885 76.702 373.264 76.073 Z"/>
  <path fill="#D43D82" opacity="1.000000" stroke="none" d="M 374.295 74.189 C 374.331 74.494 374.158 74.928 373.806 75.517 C 373.78 75.221 373.933 74.769 374.295 74.189 Z"/>
  <path fill="#F69C44" opacity="1.000000" stroke="none" d="M 406.728 187.07 C 406.717 186.788 406.912 186.438 407.289 185.999 C 407.292 186.274 407.113 186.638 406.728 187.07 Z"/>
  <path fill="#D5619D" opacity="1.000000" stroke="none" d="M 363.542 152.74 C 363.14 152.334 362.8 151.886 362.719 150.999 C 363.687 150.789 363.986 151.307 363.866 152.318 C 363.727 152.615 363.604 152.698 363.542 152.74 Z"/>
  <path fill="#FBA241" opacity="1.000000" stroke="none" d="M 308.262 73.498 C 308.265 73.766 308.069 74.081 307.731 74.516 C 307.746 74.272 307.904 73.909 308.262 73.498 Z"/>
  <path fill="#D43D82" opacity="1.000000" stroke="none" d="M 375.275 72.054 C 375.338 72.377 375.184 72.841 374.856 73.48 C 374.807 73.168 374.933 72.682 375.275 72.054 Z"/>
  <path fill="#7C52CE" opacity="1.000000" stroke="none" d="M 400.32 287.981 C 400.48 288.212 400.337 288.442 399.912 288.697 C 399.705 288.456 399.833 288.208 400.32 287.981 Z"/>
  <path fill="#7C52CE" opacity="1.000000" stroke="none" d="M 399.321 289.009 C 399.469 289.251 399.314 289.472 398.877 289.704 C 398.689 289.456 398.829 289.214 399.321 289.009 Z"/>
  <path fill="#7C52CE" opacity="1.000000" stroke="none" d="M 401.253 286.815 C 401.427 287.043 401.284 287.303 400.86 287.63 C 400.624 287.394 400.743 287.11 401.253 286.815 Z"/>
  <path fill="#F69C44" opacity="1.000000" stroke="none" d="M 404.809 189.53 C 404.665 189.342 404.759 189.172 405.041 188.958 C 405.268 189.139 405.207 189.349 404.809 189.53 Z"/>
  <path fill="#C04589" opacity="1.000000" stroke="none" d="M 328.331 54.99 C 328.477 55.255 328.384 55.379 328.063 55.376 C 327.88 55.101 327.966 54.968 328.331 54.99 Z"/>
  <path fill="#7C52CE" opacity="1.000000" stroke="none" d="M 361.633 290.415 C 361.489 290.21 361.613 290.007 361.977 289.773 C 362.175 289.986 362.069 290.21 361.633 290.415 Z"/>
  <path fill="#C04589" opacity="1.000000" stroke="none" d="M 364.223 89.75 C 364.358 89.959 364.194 90.224 363.768 90.582 C 363.564 90.356 363.704 90.066 364.223 89.75 Z"/>
  <path fill="#D43D82" opacity="1.000000" stroke="none" d="M 368.275 84.114 C 368.411 84.11 368.201 84.479 368.111 84.537 C 367.908 84.397 367.947 84.238 368.275 84.114 Z"/>
  <path fill="#D43D82" opacity="1.000000" stroke="none" d="M 367.197 85.798 C 367.325 85.989 367.185 86.22 366.82 86.533 C 366.612 86.325 366.723 86.066 367.197 85.798 Z"/>
  <path fill="#DF3A7B" opacity="1.000000" stroke="none" d="M 385.722 113.349 C 385.641 113.181 385.763 113.036 386.048 112.855 C 386.206 113.037 386.111 113.222 385.722 113.349 Z"/>
  <path fill="#DF3A7B" opacity="1.000000" stroke="none" d="M 387.698 111.637 C 387.618 111.413 387.826 111.201 388.272 110.926 C 388.464 111.199 388.29 111.461 387.698 111.637 Z"/>
  <path fill="#C04589" opacity="1.000000" stroke="none" d="M 409.703 86.713 C 409.589 86.451 409.782 86.22 410.202 85.899 C 410.251 86.088 410.111 86.4 409.703 86.713 Z"/>
  <path fill="#DF3A7B" opacity="1.000000" stroke="none" d="M 388.811 110.669 C 388.698 110.447 388.876 110.22 389.3 109.931 C 389.492 110.172 389.343 110.438 388.811 110.669 Z"/>
  <path fill="#DF3A7B" opacity="1.000000" stroke="none" d="M 389.823 109.692 C 389.713 109.459 389.909 109.224 390.363 108.921 C 390.4 109.084 390.236 109.363 389.823 109.692 Z"/>
  <path fill="#F07A38" opacity="1.000000" stroke="none" d="M 331.76 89.465 C 331.706 89.314 331.838 89.182 332.102 88.995 C 332.271 89.186 332.174 89.367 331.76 89.465 Z"/>
  <path fill="#AE498C" opacity="1.000000" stroke="none" d="M 353.273 102.906 C 353.369 103.093 353.202 103.317 352.809 103.617 C 352.651 103.409 352.794 103.159 353.273 102.906 Z"/>
  <path fill="#F07A38" opacity="1.000000" stroke="none" d="M 329.956 90.93 C 329.94 90.752 330.213 90.447 330.752 89.975 C 330.76 90.14 330.503 90.472 329.956 90.93 Z"/>
  <path fill="#C04589" opacity="1.000000" stroke="none" d="M 411.764 83.692 C 411.602 83.499 411.719 83.249 412.061 82.89 C 412.302 83.081 412.222 83.365 411.764 83.692 Z"/>
  <path fill="#AE498C" opacity="1.000000" stroke="none" d="M 354.247 101.829 C 354.351 102.028 354.176 102.271 353.76 102.6 C 353.585 102.38 353.734 102.108 354.247 101.829 Z"/>
  <path fill="#AE498C" opacity="1.000000" stroke="none" d="M 355.201 100.723 C 355.32 100.932 355.138 101.203 354.693 101.576 C 354.651 101.424 354.808 101.127 355.201 100.723 Z"/>
  <path fill="#C04589" opacity="1.000000" stroke="none" d="M 363.281 90.91 C 363.403 91.098 363.266 91.317 362.907 91.605 C 362.71 91.399 362.822 91.155 363.281 90.91 Z"/>
  <path fill="#D43D82" opacity="1.000000" stroke="none" d="M 398.883 100.849 C 398.744 100.632 398.916 100.352 399.352 99.958 C 399.407 100.115 399.267 100.429 398.883 100.849 Z"/>
  <path fill="#C04589" opacity="1.000000" stroke="none" d="M 362.319 92.075 C 362.44 92.242 362.337 92.415 362.055 92.645 C 361.854 92.474 361.927 92.266 362.319 92.075 Z"/>
  <path fill="#D43D82" opacity="1.000000" stroke="none" d="M 399.799 99.727 C 399.693 99.511 399.878 99.271 400.304 98.946 C 400.494 99.183 400.342 99.463 399.799 99.727 Z"/>
  <path fill="#D43D82" opacity="1.000000" stroke="none" d="M 400.805 98.688 C 400.696 98.475 400.873 98.247 401.285 97.943 C 401.486 98.183 401.342 98.451 400.805 98.688 Z"/>
  <path fill="#D43D82" opacity="1.000000" stroke="none" d="M 401.779 97.649 C 401.661 97.461 401.794 97.251 402.128 96.966 C 402.33 97.166 402.23 97.411 401.779 97.649 Z"/>
  <path fill="#C04589" opacity="1.000000" stroke="none" d="M 360.248 94.832 C 360.373 95.045 360.207 95.286 359.792 95.601 C 359.595 95.371 359.734 95.1 360.248 94.832 Z"/>
  <path fill="#EF863B" opacity="1.000000" stroke="none" d="M 291.258 95.03 C 291.408 95.009 291.139 95.418 291.05 95.501 C 290.855 95.364 290.904 95.186 291.258 95.03 Z"/>
  <path fill="#AA624D" opacity="1.000000" stroke="none" d="M 253.409 185.515 C 253.196 185.567 252.909 185.353 252.534 184.875 C 252.742 184.824 253.038 185.036 253.409 185.515 Z"/>
  <path fill="#FBA241" opacity="1.000000" stroke="none" d="M 311.245 70.466 C 311.239 70.51 311.212 70.49 311.238 70.488 C 311.265 70.485 311.25 70.423 311.245 70.466 Z"/>
  <path fill="#AA624D" opacity="1.000000" stroke="none" d="M 259.488 191.584 C 259.287 191.66 258.98 191.488 258.573 191.065 C 258.776 190.989 259.079 191.162 259.488 191.584 Z"/>
  <path fill="#AA624D" opacity="1.000000" stroke="none" d="M 258.385 190.555 C 258.094 190.781 257.815 190.622 257.536 190.088 C 257.743 190.005 258.03 190.158 258.385 190.555 Z"/>
  <path fill="#C04589" opacity="1.000000" stroke="none" d="M 361.205 93.711 C 361.342 93.93 361.166 94.207 360.71 94.58 C 360.66 94.421 360.813 94.119 361.205 93.711 Z"/>
  <path fill="#AA624D" opacity="1.000000" stroke="none" d="M 257.339 189.59 C 257.067 189.812 256.791 189.666 256.511 189.154 C 256.787 188.924 257.063 189.069 257.339 189.59 Z"/>
  <path fill="#FBA241" opacity="1.000000" stroke="none" d="M 310.246 71.467 C 310.24 71.511 310.213 71.492 310.24 71.489 C 310.267 71.487 310.252 71.423 310.246 71.467 Z"/>
  <path fill="#AA624D" opacity="1.000000" stroke="none" d="M 256.312 188.639 C 256.38 188.883 255.937 189.034 255.706 189.076 C 255.448 188.908 255.42 188.697 255.407 188.167 C 255.696 188.03 255.969 188.213 256.312 188.639 Z"/>
  <path fill="#AA624D" opacity="1.000000" stroke="none" d="M 255.34 187.578 C 255.047 187.776 254.779 187.601 254.534 187.055 C 254.825 186.855 255.095 187.028 255.34 187.578 Z"/>
  <path fill="#AA624D" opacity="1.000000" stroke="none" d="M 254.389 186.552 C 254.176 186.623 253.9 186.447 253.554 186.029 C 253.765 185.958 254.045 186.132 254.389 186.552 Z"/>
  <path fill="#F5973E" opacity="1.000000" stroke="none" d="M 367.013 216.274 C 366.897 216.226 367.208 216.018 367.288 215.977 C 367.411 216.141 367.331 216.269 367.013 216.274 Z"/>
  <path fill="#FBA241" opacity="1.000000" stroke="none" d="M 309.247 72.47 C 309.241 72.513 309.213 72.493 309.24 72.491 C 309.268 72.488 309.253 72.426 309.247 72.47 Z"/>
  <path fill="#D5619D" opacity="1.000000" stroke="none" d="M 362.442 150.822 C 362.157 150.637 361.914 150.414 361.642 149.937 C 361.612 149.682 361.657 149.658 361.679 149.644 C 362.124 149.606 362.449 149.78 362.629 150.418 C 362.571 150.711 362.484 150.784 362.442 150.822 Z"/>
  <path fill="#F5346F" opacity="1.000000" stroke="none" d="M 383.355 147.448 C 383.04 147.433 383.022 147.192 383.298 146.847 C 383.401 146.757 383.462 147.233 383.355 147.448 Z"/>
  <path fill="#E95832" opacity="1.000000" stroke="none" d="M 292.537 144.488 C 292.222 144.52 292.158 144.278 292.355 143.89 C 292.44 143.781 292.611 144.25 292.537 144.488 Z"/>
  <path fill="#EF863B" opacity="1.000000" stroke="none" d="M 305.163 76.922 C 305.303 77.118 305.193 77.301 304.878 77.522 C 304.654 77.321 304.735 77.104 305.163 76.922 Z"/>
  <path fill="#D43D82" opacity="1.000000" stroke="none" d="M 372.281 77.945 C 372.395 78.097 372.292 78.284 372.026 78.553 C 371.815 78.392 371.883 78.173 372.281 77.945 Z"/>
  <path fill="#D43D82" opacity="1.000000" stroke="none" d="M 371.218 79.757 C 371.347 79.938 371.216 80.176 370.869 80.51 C 370.653 80.312 370.754 80.048 371.218 79.757 Z"/>
  <path fill="#C04589" opacity="1.000000" stroke="none" d="M 412.791 81.8 C 412.62 81.618 412.731 81.337 413.073 80.917 C 413.316 81.098 413.239 81.405 412.791 81.8 Z"/>
  <path fill="#D43D82" opacity="1.000000" stroke="none" d="M 369.258 82.859 C 369.37 83.035 369.239 83.243 368.912 83.526 C 368.709 83.33 368.809 83.093 369.258 82.859 Z"/>
  <path opacity="1.000000" stroke="none" d="M 248.506 276.074 C 250.406 276.22 251.891 276.297 253.348 276.538 C 254.72 276.766 255.922 277.504 256.344 278.858 C 257.294 281.909 256.222 284.466 253.089 284.874 C 250.231 285.246 246.036 287.601 244.714 283.179 C 244.061 280.993 241.995 276.014 248.506 276.074 Z" style="fill: rgb(255, 255, 255);"/>
  <path opacity="1.000000" stroke="none" d="M 253.883 263.198 C 249.275 266.791 244.824 266.712 244.544 263.315 C 244.375 261.263 242.858 257.82 247.207 257.778 C 250.674 257.745 254.71 257.191 253.883 263.198 Z" style="fill: rgb(255, 255, 255);"/>
  <path fill="#FBA241" opacity="1.000000" stroke="none" d="M 405.184 151.855 C 405.967 160.078 401.76 167.201 399.536 175.21 C 397.876 178.605 396.405 181.751 393.491 184.286 C 386.021 195.374 375.513 202.193 363.801 208.047 C 362.631 208.231 361.891 208.063 360.919 207.386 C 361.614 200.643 363.524 194.954 369.463 190.894 C 373.741 187.969 377.128 183.741 381.193 179.918 C 383.873 180.574 385.132 179.098 386.333 177.398 C 389.778 172.521 392.552 167.315 394.58 161.68 C 395.33 159.597 395.445 157.047 398.179 155.789 C 401.64 156.155 402.74 153.201 405.184 151.855 Z"/>
  <path fill="#FCAB5A" opacity="1.000000" stroke="none" d="M 398.538 155.33 C 396.113 164.8 392.625 173.367 386.75 180.762 C 385.134 182.796 382.94 185.705 381.501 180.092 C 389.572 168.989 395.487 157.218 397.909 143.502 C 399.743 146.542 399.743 146.542 398.538 155.33 Z"/>
  <path fill="#FCC692" opacity="1.000000" stroke="none" d="M 360.394 207.341 C 361.357 207.004 362.075 206.897 363.156 206.781 C 364.505 207.219 364.85 208.03 364.65 209.369 C 364.485 209.681 364.465 210.138 364.445 210.365 C 357.453 213.127 350.711 216.354 342.92 217.626 C 341.366 217.344 340.89 216.568 341.271 215.061 C 347.884 212.814 354.171 210.595 360.394 207.341 Z"/>
  <path fill="#FCAB5A" opacity="1.000000" stroke="none" d="M 341.063 214.734 C 341.74 215.535 341.994 216.326 342.391 217.396 C 335.038 220.547 327.191 219.631 318.979 219.828 C 318.507 219.366 318.503 218.888 318.503 218.051 C 322.287 217.194 326.066 216.697 330.183 215.991 C 333.894 215.429 337.268 215.077 341.063 214.734 Z"/>
  <path fill="#F5346F" opacity="1.000000" stroke="none" d="M 384.529 129.203 C 384.475 133.268 384.362 136.973 384.166 141.113 C 383.896 140.578 383.526 139.603 383.547 138.637 C 383.767 128.331 383.984 129.092 373.391 126.5 C 366.779 124.882 360.159 123.286 353.594 121.489 C 351.889 121.022 350.381 119.836 348.523 118.681 C 350.213 115.268 353.937 114.128 356.321 111.016 C 356.923 110.71 357.348 110.688 358.088 110.622 C 365.274 113.786 372.737 114.981 380.403 117.022 C 380.986 121.358 384.131 124.663 384.529 129.203 Z"/>
  <path fill="#FD5081" opacity="1.000000" stroke="none" d="M 362.785 150.899 C 362.467 150.407 362.301 150.143 361.887 149.774 C 361.353 148.063 360.337 146.976 358.843 145.869 C 357.804 144.373 356.726 143.39 355.037 142.644 C 354.644 142.175 354.547 141.816 354.387 141.186 C 358.229 139.089 362.409 138.814 367.061 138.721 C 371.589 143.487 370.752 149.466 371.447 155.517 C 368.674 155.863 365.851 155.991 363.991 152.849 C 363.484 152.105 363.241 151.596 362.785 150.899 Z"/>
  <path fill="#F5346F" opacity="1.000000" stroke="none" d="M 339.968 134.666 C 339.011 134.156 338.458 133.664 337.724 132.961 C 343.998 129.863 351.09 130.287 357.851 128.99 C 361.349 128.32 363.031 131.956 365.308 134.477 C 363.364 134.962 361.211 134.951 359.152 135.383 C 352.815 136.715 346.561 136.867 339.968 134.666 Z"/>
  <path fill="#FDD8AB" opacity="1.000000" stroke="none" d="M 364.823 209.602 C 364.198 208.914 363.912 208.146 363.572 207.075 C 374.385 200.893 384.253 193.723 392.693 184.15 C 393.142 183.493 393.48 183.304 394.159 183.555 C 394.79 187.25 391.439 188.694 390.167 191.597 C 385.976 195.286 381.939 198.718 377.695 202.405 C 372.821 203.944 369.642 207.904 364.823 209.602 Z"/>
  <path fill="#FCC692" opacity="1.000000" stroke="none" d="M 394.619 183.529 C 394.055 183.804 393.73 183.829 393.163 183.876 C 394.938 181.265 396.954 178.637 399.243 175.794 C 399.299 178.954 398.079 181.72 394.619 183.529 Z"/>
  <path fill="#D5619D" opacity="1.000000" stroke="none" d="M 392.784 63.53 C 393.364 63.588 393.591 63.618 394.16 63.688 C 396.525 64.625 397.176 66.92 399.123 68.413 C 400.164 71.646 398.465 73.133 395.889 74.537 C 392.923 79.668 389.415 83.945 385.644 88.442 C 384.954 89.145 384.373 89.505 383.936 89.993 C 382.99 91.051 382.002 92.064 380.597 90.848 C 379.321 89.745 379.772 88.428 380.602 87.264 C 383.691 82.93 386.137 78.227 388.596 73.147 C 388.472 72.088 388.331 71.391 388.621 70.342 C 390.257 68.448 390.887 66.47 391.61 64.153 C 392.028 63.75 392.229 63.627 392.784 63.53 Z"/>
  <path fill="#F5346F" opacity="1.000000" stroke="none" d="M 389.837 70.566 C 389.388 71.391 389.185 71.885 388.807 72.582 C 384.758 73.289 381.911 70.237 377.936 69.773 C 377.618 68.711 377.673 67.678 377.749 66.257 C 378.992 63.893 378.432 61.679 378.624 59.15 C 380.502 56.432 382.766 57.063 384.954 58.01 C 387.23 58.996 389.393 60.229 391.657 62.032 C 392.28 65.223 391.614 67.829 389.837 70.566 Z"/>
  <path opacity="1.000000" stroke="none" d="M 430.726 262.945 C 437.544 263.061 442.252 265.836 444.94 271.795 C 445.968 274.073 446.067 275.582 442.816 275.546 C 435.493 275.464 428.166 275.464 420.844 275.587 C 417.693 275.639 417.507 274.157 418.517 271.858 C 420.784 266.703 424.844 263.883 430.726 262.945 Z" style="fill: rgb(255, 255, 255);"/>
  <path opacity="1.000000" stroke="none" d="M 398.639 266.547 C 401.137 268.909 403.918 271.793 402.921 274.342 C 401.844 277.095 397.852 275.354 395.171 275.469 C 389.681 275.704 384.166 275.353 378.679 275.619 C 374.871 275.804 374.851 274.342 376.114 271.538 C 379.983 262.947 389.817 260.603 398.639 266.547 Z" style="fill: rgb(255, 255, 255);"/>
  <path opacity="1.000000" stroke="none" d="M 354.576 291.268 C 353.268 292.648 351.832 292.796 349.976 292.828 C 347.851 293.533 346.033 293.176 343.814 293.048 C 342.413 292.783 341.433 292.682 340.082 292.626 C 339.434 290.605 337.349 290.287 335.939 288.882 C 335.127 288.372 335.026 287.798 334.648 287.075 C 334.418 286.903 334.433 286.831 334.397 286.825 C 334.234 286.523 334.058 286.259 333.682 285.843 C 329.608 274.584 333.819 265.492 343.893 263.289 C 351.226 261.686 357.685 265.695 361.423 274.409 C 362.443 276.767 361.865 278.895 361.741 281.381 C 360.065 285.443 358.055 288.7 354.576 291.268 Z" style="fill: rgb(255, 255, 255);"/>
  <path fill="#7C52CE" opacity="1.000000" stroke="none" d="M 361.749 281.478 C 361.494 279.724 361.457 277.665 361.489 275.17 C 362.906 276.803 362.785 278.966 361.749 281.478 Z"/>
  <path fill="#7151AF" opacity="1.000000" stroke="none" d="M 334.445 287.197 C 334.796 287.316 335.174 287.729 335.607 288.428 C 335.266 288.306 334.868 287.898 334.445 287.197 Z"/>
  <path fill="#7151AF" opacity="1.000000" stroke="none" d="M 333.573 285.909 C 333.789 285.874 334.044 286.091 334.33 286.565 C 334.111 286.601 333.862 286.382 333.573 285.909 Z"/>
  <path fill="#EF6E36" opacity="1.000000" stroke="none" d="M 283.731 115.172 C 284.765 110.992 286.026 107.197 287.48 103.084 C 291.031 102.758 293.246 106.22 297.145 105.769 C 295.689 109.282 293.842 112.783 291.756 116.528 C 288.556 119.123 286.031 118.752 283.731 115.172 Z"/>
  <path fill="#EC6234" opacity="1.000000" stroke="none" d="M 283.346 115.12 C 286.005 115.119 288.09 116.983 291.131 116.762 C 290.758 118.97 289.795 121.123 289.28 123.378 C 288.277 127.771 285.633 129.437 280.875 128.759 C 280.278 124.102 281.632 119.757 283.346 115.12 Z"/>
  <path fill="#C7408A" opacity="1.000000" stroke="none" d="M 395.947 74.787 C 396.489 72.965 397.412 71.168 398.386 69.035 C 396.148 64.143 398.651 60.605 401.322 56.875 C 405.065 56.705 408.014 58 411.235 59.626 C 412.747 66.072 412.504 72.082 407.844 77.541 C 403.762 76.78 400.045 75.796 395.947 74.787 Z"/>
  <path fill="#CB74AE" opacity="1.000000" stroke="none" d="M 401.68 56.316 C 401.743 60.764 399.741 64.265 398.6 68.367 C 395.49 68.763 393.734 67.735 394.5 64.063 C 394.545 63.236 394.541 62.734 394.639 62.253 C 397.365 48.806 393.539 43.845 379.112 42.649 C 382.432 39.425 391.598 40.247 396.428 44.125 C 400.231 47.178 401.806 51.133 401.68 56.316 Z"/>
  <path fill="#D5619D" opacity="1.000000" stroke="none" d="M 407.772 77.9 C 409.801 72.278 410.745 66.464 411.547 60.202 C 412.039 60.038 412.519 60.287 413.239 60.663 C 413.825 66.739 413.198 72.53 410.584 78.373 C 409.702 78.506 408.883 78.271 407.772 77.9 Z"/>
  <path fill="#EF863B" opacity="1.000000" stroke="none" d="M 277.664 209.952 C 277.79 209.926 278.017 210.116 278.357 210.508 C 278.22 210.552 277.985 210.371 277.664 209.952 Z"/>
  <path fill="#EB3675" opacity="1.000000" stroke="none" d="M 355.719 50.405 C 355.37 50.485 354.891 50.538 354.653 50.573 C 352.227 52.153 349.752 50.818 347.087 51.452 C 343.928 52.056 341.141 52.512 337.924 52.973 C 342.93 48.999 349.559 48.573 356.149 46.845 C 357.053 47.38 357.367 48 357.252 49.106 C 356.888 49.86 356.52 50.146 355.719 50.405 Z"/>
  <path fill="#C04589" opacity="1.000000" stroke="none" d="M 347.091 51.639 C 348.875 50.328 351.304 51.009 354.002 50.63 C 354.182 50.963 353.949 51.319 353.571 51.82 C 351.439 51.87 349.453 51.773 347.091 51.639 Z"/>
  <path fill="#FB326B" opacity="1.000000" stroke="none" d="M 356.834 49.923 C 356.532 48.96 356.533 48.251 356.54 47.191 C 363.028 45.341 369.546 44.471 376.25 44.572 C 389.96 44.778 393.933 48.859 393.201 63.125 C 393.137 63.558 392.854 63.59 392.713 63.614 C 392.345 63.562 392.116 63.487 391.714 63.095 C 386.892 63.249 383.979 58.471 379.013 58.747 C 378.636 58.735 378.26 58.581 378.081 58.485 C 377.651 57.919 377.399 57.45 376.97 56.779 C 376.423 55.27 375.621 54.314 374.146 53.529 C 372.335 51.135 369.993 50.763 367.179 50.619 C 366.814 50.594 366.639 50.585 366.551 50.575 C 364.959 49.99 363.39 50.369 361.463 50.258 C 359.759 50.237 358.445 50.316 356.834 49.923 Z"/>
  <path fill="#7151AF" opacity="1.000000" stroke="none" d="M 343.69 293.104 C 345.173 292.859 346.954 292.835 349.176 292.872 C 347.818 294.165 345.92 293.997 343.69 293.104 Z"/>
  <path fill="#C04589" opacity="1.000000" stroke="none" d="M 356.333 49.797 C 357.91 49.71 359.288 49.753 361.125 50.091 C 359.811 50.448 358.037 50.508 355.817 50.527 C 355.613 50.283 355.867 50.097 356.333 49.797 Z"/>
  <path fill="#D43D82" opacity="1.000000" stroke="none" d="M 361.988 50.449 C 361.584 50.387 361.53 50.109 361.512 49.969 C 362.943 49.956 364.393 50.083 366.154 50.388 C 365.107 50.547 363.749 50.53 361.988 50.449 Z"/>
  <path fill="#D43D82" opacity="1.000000" stroke="none" d="M 391.514 63.157 C 391.801 62.93 392.043 63.107 392.42 63.473 C 392.39 66.155 392.867 68.893 389.919 70.747 C 390.223 68.443 390.855 65.989 391.514 63.157 Z"/>
</svg>